<svg xmlns="http://www.w3.org/2000/svg" width="40.5" height="31.5" viewBox="0 0 40.5 31.5">
  <path id="kmflzeyihg" data-name="Icon awesome-spa" d="M39.955,13.5c-2.042.009-9.493.433-15.036,5.836a18.068,18.068,0,0,0-4.669,6.67,18.068,18.068,0,0,0-4.669-6.67C10.038,13.933,2.587,13.509.545,13.5A.535.535,0,0,0,0,14.05,19.471,19.471,0,0,0,6.242,28.063,18.662,18.662,0,0,0,20.25,33.75a18.661,18.661,0,0,0,14.008-5.687A19.469,19.469,0,0,0,40.5,14.05a.535.535,0,0,0-.545-.55ZM20.249,21.277a19.345,19.345,0,0,1,3.1-3.552,21.043,21.043,0,0,1,4.237-3.177,23.193,23.193,0,0,0-6.8-12.109.845.845,0,0,0-1.065,0,23.193,23.193,0,0,0-6.8,12.1,20.672,20.672,0,0,1,4.164,3.121,19.882,19.882,0,0,1,3.167,3.618Z" transform="translate(0 -2.25)" fill="rgba(0,0,0,1)"></path>
</svg>